<?xml version="1.0" encoding="utf-8"?>
<!-- Generator: Adobe Illustrator 25.2.0, SVG Export Plug-In . SVG Version: 6.00 Build 0)  -->
<svg version="1.1" id="Layer_1" xmlns:xodm="http://www.corel.com/coreldraw/odm/2003"
	 xmlns="http://www.w3.org/2000/svg" xmlns:xlink="http://www.w3.org/1999/xlink" x="0px" y="0px" viewBox="0 0 2901 840.9"
	 style="enable-background:new 0 0 2901 840.9;" xml:space="preserve">
<style type="text/css">
	.st0{fill-rule:evenodd;clip-rule:evenodd;fill:#007697;}
	.st1{fill-rule:evenodd;clip-rule:evenodd;fill:#EC6722;}
</style>
<g id="Layer_x0020_1">
	<path class="st0" d="M997.7,0c33.8,23.2,68.2,58.3,68.2,92.2v598c0,33.5-31.6,80.9-60.4,99.8c101.5,0,203,0,304.4,0
		c197-8.1,316.5-79.2,330.7-228.3c10-104.6-45.2-185.9-181-231.8c67.7-25.8,104.1-81.9,107.5-159.3C1572.9,37.5,1418,0,1320.5,0
		L997.7,0L997.7,0z M1186.6,320.3V70.9h93.4c106,0,155.9,52,155.9,130.4c0,78.4-71.7,118.9-161.1,118.9L1186.6,320.3L1186.6,320.3z
		 M1286.2,714h-99.6V391.1h112.9c168.1,0,219,101.1,210,183.7C1500.4,657.5,1429.4,714,1286.2,714z M1908.8,0h-165.4
		c36.8,40.9,52.8,62.4,52.8,125.9v545c0,62.8-27.8,101.3-67.7,128.6h220.1c-32.7-20-67.9-59.1-67.9-130V188
		c111.2,148.6,222.4,297.1,333.6,445.7c63.1,82.5,136.1,152.4,221.4,207.2V123.1c0-71.9,29-99.3,67.8-123h-214.6
		c38.9,28.9,59.5,61.5,59.5,120.2v480.7L1908.8,0L1908.8,0z M2625.3,799.5c44.5-29.5,67.2-64.2,67.2-109.2V119.4
		c0-67.5-19.5-82.8-57.7-119.4h254.1c-43.9,24.7-74.6,75.1-74.6,119.4v569.3c0,43.7,25.9,83.7,60.9,110.8H2625.3L2625.3,799.5z"/>
	<path class="st1" d="M0,0h245.3c-12.8,22-22.5,71.4,2.3,182.4c22,98.7,85.8,201.6,152.3,283L316.3,534L0,136.6L0,0L0,0z M358.2,0
		h431.8v104.6c-33.4-19.5-94.3-38.4-183.7-2.6c-144.3,57.7-156.6,226.7-156.6,226.7C369.7,232.4,317.2,74.3,358.2,0L358.2,0z
		 M789.9,243.4v311.4c-98.1,37.2-235.7-59.6-270.3-174.5c-50.1-166.6,68-226.7,152.5-210.2C735.3,182.4,772,220,789.9,243.4z
		 M789.9,606v184H525.3l53-43.5c-34.6,4.2-102.6-12.1-135.7-53.7l-93.1-117l85.2-69.9C487,563.5,536.8,604.9,565,617.4
		C625.3,644,693.3,656.8,789.9,606L789.9,606z M377.5,790H88.5l180.1-147.9c14.7,18.5,29,36.4,42.5,53.4
		C337.6,728.9,359.9,761.8,377.5,790L377.5,790z M4.5,790H0V304.7c68.8,86.4,156.7,196.8,235.4,295.8L4.5,790L4.5,790z"/>
</g>
</svg>
