<?xml version="1.0" encoding="utf-8"?>
<!-- Generator: Adobe Illustrator 25.2.0, SVG Export Plug-In . SVG Version: 6.00 Build 0)  -->
<svg version="1.1" id="Layer_1" xmlns:xodm="http://www.corel.com/coreldraw/odm/2003"
	 xmlns="http://www.w3.org/2000/svg" xmlns:xlink="http://www.w3.org/1999/xlink" x="0px" y="0px" viewBox="0 0 2542 767.8"
	 style="enable-background:new 0 0 2542 767.8;" xml:space="preserve">
<style type="text/css">
	.st0{fill:#1F4396;}
</style>
<path class="st0" d="M657.7,0H110.1C49.3,0,0,49.3,0,110.1h0v547.6c0,60.8,49.3,110.1,110.1,110.1h547.6
	c60.8,0,110.1-49.3,110.1-110.1V110.1C767.8,49.3,718.5,0,657.7,0z M187.6,692.6h-53.7c-32.4,0-58.7-26.3-58.7-58.7V134.1
	c0-32.4,26.3-58.7,58.7-58.7h67c88.2,0,153.6,89.4,97.2,145.9l-163.8,164l140.5,147.2C343,604,263.2,692.6,187.6,692.6z
	 M319.8,692.4c68.3,0,111.4-114.8,38.3-190.9L246.6,385.3l129.9-133.9c69.9-72.1,19.2-164.9-30-176h56.6c88.2,0,153.6,89.4,97.2,146
	l-163.8,164l301,307.1L319.8,692.4z M448.7,385.3l129.9-133.9c69.9-72.1,19.2-164.9-30-176h85c32.4,0,58.7,26.3,58.7,58.7l0.1,499.7
	L448.7,385.3z"/>
<g>
	<path class="st0" d="M1011.4,380.3c15.3-4.3,27-11.2,35-20.8c8-9.6,12-21.7,12-36.2c0-21.6-7.7-37.8-23-48.7
		c-15.3-10.9-38.2-16.4-68.6-16.4H863.9v251.4h97.8c35.1,0,61.1-5.7,78-17.1c16.9-11.4,25.3-28.9,25.3-52.4c0-16-4.6-29.2-13.9-39.5
		C1041.8,390.2,1028.6,383.5,1011.4,380.3z M929.5,303.5H953c12.8,0,22.6,2.3,29.2,6.9c6.6,4.6,9.9,11.3,9.9,20.2
		c0,9.8-3.5,17.1-10.5,21.9c-7,4.8-17.6,7.2-31.8,7.2h-20.4V303.5z M987,455.5c-7.1,5.1-17.4,7.7-31.1,7.7h-26.4v-59h29.4
		c12.8,0,22.5,2.4,29,7.2c6.5,4.8,9.7,12.1,9.7,21.7C997.6,442.9,994,450.4,987,455.5z"/>
	<path class="st0" d="M2385.6,384.9c16.1-3.5,28.4-10.6,36.8-21c8.5-10.5,12.8-23.9,12.8-40.2c0-22.1-8.1-38.5-24.2-49.3
		c-16.1-10.8-40.8-16.2-74.1-16.2H2237v251.4h65.6v-98.2h9.7c13,0,22.5,2.1,28.6,6.4c6.1,4.2,11,11.9,14.5,23l22.1,68.8h69.9
		l-30-83.5C2409.4,403.5,2398.8,389.7,2385.6,384.9z M2358.7,359c-7.3,5.3-18.1,7.9-32.6,7.9h-23.5v-64.5h0l0,0v0h16.6
		c17.4,0,30.2,2.7,38.3,8c8.1,5.3,12.1,13.6,12.1,25C2369.6,345.9,2366,353.7,2358.7,359z"/>
	<path class="st0" d="M1169.4,258.2L1169.4,258.2l-95.3,251.4h66.3l18.7-53.2h96.8l17.9,53.2h71.6l-95.1-251.4H1169.4z
		 M1175.9,408.5l32.5-94.2l31.5,94.2H1175.9z"/>
	<rect x="2475" y="258.2" class="st0" width="67" height="251.4"/>
	<path class="st0" d="M2143.9,380.3c15.3-4.3,27-11.2,35-20.8c8-9.6,12-21.7,12-36.2c0-21.6-7.7-37.8-23-48.7
		c-15.3-10.9-38.2-16.4-68.6-16.4h-102.9v251.4h97.8c35.1,0,61.1-5.7,78-17.1c16.9-11.4,25.3-28.9,25.3-52.4
		c0-16-4.6-29.2-13.9-39.5C2174.3,390.2,2161.1,383.5,2143.9,380.3z M2062,303.5h23.5c12.9,0,22.6,2.3,29.2,6.9
		c6.6,4.6,9.9,11.3,9.9,20.2c0,9.8-3.5,17.1-10.5,21.9c-7,4.8-17.6,7.2-31.8,7.2H2062V303.5z M2119.5,455.5
		c-7.1,5.1-17.4,7.7-31.1,7.7H2062v-59l0,0h29.4c12.8,0,22.5,2.4,29,7.2c6.5,4.8,9.7,12.1,9.7,21.7
		C2130.1,442.9,2126.6,450.4,2119.5,455.5z"/>
	<polygon class="st0" points="1996.5,258.2 1996.5,258.2 1996.5,258.2 	"/>
	<polygon class="st0" points="1857.6,258.2 1782.6,258.2 1704.8,366.8 1704.8,258.2 1637.8,258.2 1637.8,509.6 1704.8,509.6 
		1704.8,393 1783.8,509.6 1867,509.6 1765.3,373.7 	"/>
	<path class="st0" d="M1529.7,400.6c0,8.6,0.5,18.1,1.5,28.5c1,10.4,2.6,21.8,4.7,34.1c-4-13.1-7.7-24.2-10.9-33.2
		c-3.3-9-6.2-16.1-8.7-21.1l-72.8-150.7h-83.6l0,0v251.4h60.5V376.9c0-9.6-0.6-20.6-1.7-33.2c-1.1-12.6-2.9-26.3-5.2-41.3
		c2.5,9.9,5.2,19.1,8.1,27.5c2.9,8.4,6.2,16.2,9.7,23.4l75.6,156.2h83.3V258.2h-60.5V400.6z"/>
</g>
</svg>
